<svg width="17" height="18" viewBox="0 0 17 18" fill="none" xmlns="http://www.w3.org/2000/svg">
<path d="M8.49998 4C8.78332 4 9.02098 3.904 9.21298 3.712C9.40498 3.52 9.50065 3.28267 9.49998 3C9.49932 2.71733 9.40332 2.48 9.21198 2.288C9.02065 2.096 8.78332 2 8.49998 2C8.21665 2 7.97932 2.096 7.78798 2.288C7.59665 2.48 7.50065 2.71733 7.49998 3C7.49932 3.28267 7.59532 3.52033 7.78798 3.713C7.98065 3.90567 8.21798 4.00133 8.49998 4ZM11.325 4H13.075C13.575 4 14.0083 4.16667 14.375 4.5C14.7416 4.83333 14.9666 5.24167 15.05 5.725L16.475 15.725C16.5583 16.325 16.4043 16.8543 16.013 17.313C15.6216 17.7717 15.1173 18.0007 14.5 18H2.49998C1.88332 18 1.37898 17.771 0.986982 17.313C0.594982 16.855 0.440982 16.3257 0.524982 15.725L1.94998 5.725C2.03331 5.24167 2.25832 4.83333 2.62498 4.5C2.99165 4.16667 3.42498 4 3.92498 4H5.67498C5.62498 3.83333 5.58332 3.671 5.54998 3.513C5.51665 3.355 5.49998 3.184 5.49998 3C5.49998 2.16667 5.79165 1.45833 6.37498 0.875C6.95832 0.291667 7.66665 0 8.49998 0C9.33331 0 10.0416 0.291667 10.625 0.875C11.2083 1.45833 11.5 2.16667 11.5 3C11.5 3.18333 11.4833 3.35433 11.45 3.513C11.4166 3.67167 11.375 3.834 11.325 4Z" fill="#21262C"/>
</svg>
