<svg width="22" height="22" viewBox="-1 -2 22 22" fill="none" xmlns="http://www.w3.org/2000/svg">
<path d="M15.4945 0.589844C13.5597 0.589844 11.9065 1.96892 10.9982 2.91969C10.0899 1.96892 8.44035 0.589844 6.5065 0.589844C3.17327 0.589844 0.846191 2.91323 0.846191 6.23907C0.846191 9.90369 3.73635 12.2723 6.53235 14.5634C7.85235 15.6462 9.2185 16.7649 10.2662 18.0055C10.4425 18.2132 10.701 18.3332 10.9723 18.3332H11.0259C11.2982 18.3332 11.5557 18.2123 11.7311 18.0055C12.7807 16.7649 14.1459 15.6452 15.4668 14.5634C18.2619 12.2732 21.1539 9.90461 21.1539 6.23907C21.1539 2.91323 18.8268 0.589844 15.4945 0.589844Z" fill="#21262C"/>
</svg>
