<svg width="22" height="19" viewBox="0 0 22 19" fill="none" xmlns="http://www.w3.org/2000/svg">
<path d="M11.9981 0V1H18.9981V3H11.9981V17H15.9981V19H5.99806V17H9.99806V3H2.99806V1H9.99806V0H11.9981ZM3.99806 4.343L6.82606 7.172C7.38545 7.73142 7.76639 8.44415 7.92072 9.22007C8.07504 9.99599 7.99582 10.8002 7.69306 11.5311C7.3903 12.262 6.87761 12.8867 6.21982 13.3262C5.56203 13.7658 4.78868 14.0004 3.99756 14.0004C3.20644 14.0004 2.43309 13.7658 1.7753 13.3262C1.11751 12.8867 0.604819 12.262 0.302062 11.5311C-0.000694603 10.8002 -0.07992 9.99599 0.0744042 9.22007C0.228728 8.44415 0.609671 7.73142 1.16906 7.172L3.99806 4.343ZM17.9981 4.343L20.8261 7.172C21.3855 7.73142 21.7664 8.44415 21.9207 9.22007C22.075 9.99599 21.9958 10.8002 21.6931 11.5311C21.3903 12.262 20.8776 12.8867 20.2198 13.3262C19.562 13.7658 18.7887 14.0004 17.9976 14.0004C17.2064 14.0004 16.4331 13.7658 15.7753 13.3262C15.1175 12.8867 14.6048 12.262 14.3021 11.5311C13.9993 10.8002 13.9201 9.99599 14.0744 9.22007C14.2287 8.44415 14.6097 7.73142 15.1691 7.172L17.9981 4.343ZM17.9981 7.172L16.5841 8.586C16.209 8.96099 15.9982 9.46961 15.9981 10L19.9981 10.001C19.9981 9.461 19.7861 8.96 19.4121 8.586L17.9981 7.172ZM3.99806 7.172L2.58406 8.586C2.20896 8.96099 1.99817 9.46961 1.99806 10L5.99806 10.001C5.99806 9.461 5.78606 8.96 5.41206 8.586L3.99806 7.172Z" fill="#21262C"/>
</svg>
